<?xml version="1.0" standalone="no"?><!DOCTYPE svg PUBLIC "-//W3C//DTD SVG 1.1//EN" "http://www.w3.org/Graphics/SVG/1.1/DTD/svg11.dtd"><svg t="1728201940249" class="icon" viewBox="0 0 1024 1024" version="1.1" xmlns="http://www.w3.org/2000/svg" p-id="7200" xmlns:xlink="http://www.w3.org/1999/xlink" width="256" height="256"><path d="M1024 512C1024 229.230209 794.769796 0 512 0 229.230204 0 0 229.230209 0 512 0 794.769791 229.230204 1024 512 1024 794.769796 1024 1024 794.769791 1024 512ZM70.62069 512C70.62069 268.232939 268.232934 70.62069 512 70.62069 755.767066 70.62069 953.37931 268.232939 953.37931 512 953.37931 755.767061 755.767066 953.37931 512 953.37931 268.232934 953.37931 70.62069 755.767061 70.62069 512ZM512 317.793103C541.252043 317.793103 564.965517 294.079633 564.965517 264.827586 564.965517 235.57554 541.252043 211.862069 512 211.862069 482.747957 211.862069 459.034483 235.57554 459.034483 264.827586 459.034483 294.079633 482.747957 317.793103 512 317.793103ZM476.689655 794.482759C476.689655 813.984124 492.498644 829.793103 512 829.793103 531.501356 829.793103 547.310345 813.984124 547.310345 794.482759L547.310345 406.068966C547.310345 386.567601 531.501356 370.758621 512 370.758621 492.498644 370.758621 476.689655 386.567601 476.689655 406.068966L476.689655 794.482759Z" fill="#389BFF" p-id="7201"></path></svg>